<svg id="Laag_1" data-name="Laag 1" xmlns="http://www.w3.org/2000/svg" viewBox="0 0 129.73 77.98"><defs><style>.cls-1{fill:#cd1722;}.cls-2{fill:#458dcb;}.cls-3{font-size:23.28px;fill:#1d1d1b;font-family:MVBoli, MV Boli;}</style></defs><path class="cls-1" d="M425.36,859.61l.09-16.74a8.55,8.55,0,0,1-5.77,2c-11.8-.07-11.68-18.45.1-18.39a8.66,8.66,0,0,1,5.75,2l.1-17.73-19.28-.1c4.25,5.23,1.94,15.38-6.82,15.33s-11-10.22-6.66-15.41l-17.49-.09-.26,48.84Z" transform="translate(-360.15 -810.51)"/><ellipse class="cls-1" cx="370.08" cy="835.4" rx="9.97" ry="9.93" transform="translate(-827.43 390.5) rotate(-89.69)"/><path class="cls-2" d="M456,810.7c3.42,4.91,1.16,13.55-6.76,13.55s-10.17-8.64-6.75-13.55H425.2v48.83H475V810.7Z" transform="translate(-360.15 -810.51)"/><ellipse class="cls-2" cx="120.22" cy="24.88" rx="9.51" ry="9.33"/><ellipse class="cls-2" cx="59.53" cy="25.02" rx="9.51" ry="9.33"/><text class="cls-3" transform="translate(14.53 71.05) scale(1.15 1)">PZZLE</text></svg>